<svg xmlns="http://www.w3.org/2000/svg" version="1" width="32" height="32" id="Food">
  <path d="M16 0C7.164 0 0 7.164 0 16s7.164 16 16 16 16-7.164 16-16S24.836 0 16 0zm-3.662 8.248c.667 0 1 .583 1 1.25s-.501 1.168-1.168 1.168h-.082c-.25 0-.418.25-.418.5s.25.5.5.5h.084c.667 0 1.168.5 1.168 1.166 0 .667-.501 1.168-1.168 1.168a.36.36 0 0 1-.334-.334.36.36 0 0 1 .334-.334c.25 0 .5-.25.5-.5s-.25-.5-.5-.5c-.667 0-1.166-.5-1.166-1.166 0-.667.5-1.168 1.166-1.168h.084c.25 0 .5-.25.5-.5s-.25-.5-.5-.5a.36.36 0 0 1-.334-.334c0-.25.167-.416.334-.416zm3.084 0c.75 0 1.166.583 1.166 1.25s-.5 1.168-1.166 1.168h-.084c-.334 0-.5.25-.5.5s.25.5.5.5h.084c.667 0 1.166.5 1.166 1.166 0 .667-.5 1.168-1.166 1.168a.36.36 0 0 1-.334-.334.36.36 0 0 1 .334-.334c.25 0 .5-.25.5-.5s-.25-.5-.5-.5a1.14 1.14 0 0 1-1.168-1.166c0-.667.501-1.168 1.168-1.168h.082c.25 0 .5-.25.5-.5s-.25-.5-.5-.5c-.167 0-.332-.167-.332-.334-.083-.25.083-.416.25-.416zm3.334 0c.75 0 1.25.583 1.25 1.25s-.501 1.168-1.168 1.168h-.166c-.25 0-.5.25-.5.5s.25.5.5.5h.084c.667 0 1.166.5 1.166 1.166 0 .667-.5 1.168-1.166 1.168a.36.36 0 0 1-.334-.334.36.36 0 0 1 .334-.334c.25 0 .5-.25.5-.5s-.25-.5-.5-.5a1.14 1.14 0 0 1-1.168-1.166c0-.667.501-1.168 1.168-1.168h.082c.25 0 .502-.25.502-.5s-.252-.5-.502-.5c-.167 0-.332-.167-.332-.334-.083-.25.083-.416.25-.416zm5.906 1.563c.94.036 1.824.645 2.262.937.167.083.25.333.166.5-.084.083-.25.167-.416.084h-1c-1.834.167-2.335 1.084-3.168 2.084-.334.417-.75.835-1.334 1.168h2.084c.167 0 .334.165.334.332v1.334c0 .083-.084.083-.084.166-.667 2.417-2.416 4.335-4.5 5.252v1.75a.36.36 0 0 1-.334.334H12.67c-.167 0-.332-.167-.332-.334v-1.75c-2.25-.917-3.917-2.918-4.584-5.252v-1.5c0-.167.083-.249.25-.332h10.002c.5 0 .833 0 1.25-.084.25-.083.416-.167.666-.25.5-.333 1.167-.918 1.834-2.418.583-1.167 1.417-1.75 2.084-1.916.083-.083.25-.084.416-.084a2.13 2.13 0 0 1 .406-.021zM8.504 15.25v.666H23.09v-.666H8.504z" fill="#d85b53" class="color000000 svgShape"></path>
</svg>